<svg width="37" height="37" viewBox="0 0 37 37" fill="none" xmlns="http://www.w3.org/2000/svg">
<path fill-rule="evenodd" clip-rule="evenodd" d="M10.1016 10.6547C5.60717 12.0593 1.79923 13.2629 1.63952 13.3295C1.14454 13.5356 1.00525 14.032 1.33653 14.4088C1.49026 14.5837 2.0947 14.8496 4.77813 15.9231L8.03325 17.2252L8.06837 20.3136C8.10059 23.1456 8.11422 23.4278 8.23262 23.7144C8.97533 25.5132 11.5172 26.7807 15.4929 27.3347C17.0578 27.5528 19.9635 27.5528 21.5284 27.3347C25.5041 26.7807 28.046 25.5132 28.7887 23.7144C28.9071 23.4278 28.9207 23.1456 28.9529 20.3134L28.988 17.2248L29.9029 16.8579C30.406 16.656 30.822 16.4909 30.8273 16.4909C30.8325 16.4909 30.871 16.6298 30.9127 16.7995C30.9632 17.0046 30.9886 18.1662 30.9886 20.2611V23.414L30.7318 23.6906C30.2647 24.1934 30.2299 24.5936 30.5559 25.7141C30.7042 26.2241 31.6416 28.8517 31.6945 28.9059C31.7274 28.9396 32.5108 26.8088 32.7741 25.9692C33.0938 24.9497 33.1409 24.5633 32.9936 24.1682C32.9303 23.9986 32.7761 23.7677 32.6509 23.6551L32.4231 23.4502L32.3948 20.1269C32.3702 17.247 32.3509 16.7492 32.2499 16.3967C32.1859 16.1729 32.1429 15.9805 32.1544 15.9692C32.1659 15.9578 32.9185 15.6511 33.8268 15.2875C34.735 14.924 35.5498 14.5576 35.6373 14.4734C35.9912 14.133 35.8738 13.5481 35.4099 13.3403C34.9385 13.1291 18.6488 8.08667 18.4608 8.09376C18.3577 8.09765 14.596 9.25007 10.1016 10.6547ZM25.8007 11.8005C29.6798 13.0082 32.8993 14.0129 32.9552 14.0331C33.0112 14.0534 32.645 14.2348 32.1414 14.4365L31.2259 14.8031L30.9208 14.6494C30.4549 14.4148 30.2049 14.3717 26.3094 13.8542C24.3139 13.5891 21.8268 13.2578 20.7824 13.118C18.6417 12.8314 18.3926 12.8187 18.1474 12.9832C17.7176 13.2716 17.8319 14.0298 18.3297 14.1927C18.4478 14.2313 20.818 14.5614 23.5968 14.9262C26.3755 15.2911 28.7326 15.6126 28.8347 15.6409C28.989 15.6835 28.1292 16.0488 23.7664 17.7943L18.5122 19.8964L11.2383 16.9801C7.23764 15.3761 3.97961 14.0613 3.99826 14.0583C4.01691 14.0552 7.26694 13.0392 11.2205 11.8004C15.3843 10.4958 18.4803 9.55992 18.5785 9.57631C18.6717 9.59187 21.9217 10.5927 25.8007 11.8005ZM14.332 19.7494C16.5281 20.6313 18.4065 21.3529 18.5061 21.3529C18.6057 21.3529 20.6692 20.559 23.0917 19.5886L27.4961 17.8243L27.5139 20.4619C27.5342 23.4799 27.5563 23.3466 26.9409 23.9226C26.0689 24.7389 24.4318 25.3943 22.3422 25.7636C21.0115 25.9987 20.0494 26.0756 18.4428 26.075C14.727 26.0736 11.4876 25.2399 10.0804 23.9226C9.46929 23.3506 9.49127 23.4796 9.49127 20.46V17.8169L9.91511 17.9813C10.1483 18.0718 12.1358 18.8674 14.332 19.7494Z" fill="black"/>
</svg>
