<svg width="66" height="19" viewBox="0 0 66 19" fill="none" xmlns="http://www.w3.org/2000/svg">
<path d="M65.9997 5.75576V18.6725H61.3874V9.61169H56.9464V18.6725H52.334V5.75488H65.9997V5.75576Z" fill="white"/>
<path fill-rule="evenodd" clip-rule="evenodd" d="M42.8613 18.7338C46.9902 18.7338 50.0562 16.2022 50.0562 12.3643C50.0562 8.6497 47.7941 6.23788 44.0135 6.23788C42.2686 6.23788 40.829 6.85206 39.7446 7.9118C40.0034 5.72143 41.8557 4.12235 43.895 4.12235C44.3657 4.12235 47.909 4.11487 47.909 4.11487L49.9127 0.280518C49.9127 0.280518 45.4642 0.381781 43.3962 0.381781C38.6712 0.464112 35.4796 4.75899 35.4796 9.97537C35.4796 16.0525 38.5924 18.7338 42.8613 18.7338ZM42.8864 9.63415C44.4194 9.63415 45.4822 10.6415 45.4822 12.3639C45.4822 13.9141 44.5378 15.1913 42.8864 15.1948C41.3066 15.1948 40.2438 14.0114 40.2438 12.3903C40.2438 10.6675 41.3066 9.63415 42.8864 9.63415Z" fill="white"/>
<path d="M31.7254 14.3159C31.7254 14.3159 30.6362 14.9438 29.0094 15.0626C27.1391 15.1181 25.4726 13.9368 25.4726 11.8381C25.4726 9.79078 26.9432 8.61744 28.9623 8.61744C30.2003 8.61744 31.8381 9.47554 31.8381 9.47554C31.8381 9.47554 33.0366 7.27637 33.6574 6.17656C32.5206 5.31494 31.0065 4.84253 29.2454 4.84253C24.8008 4.84253 21.3583 7.74042 21.3583 11.8121C21.3583 15.9357 24.5939 18.7662 29.2454 18.6808C30.5455 18.6324 32.3392 18.1758 33.4324 17.4736L31.7254 14.3159Z" fill="white"/>
<path d="M0.5979 4.29712L2.83259 8.29148V10.7279L0.600515 14.7144L0.5979 4.29712Z" fill="#5B57A2"/>
<path d="M9.1781 6.83796L11.2721 5.55454L15.5575 5.55054L9.1781 9.45863V6.83796Z" fill="#D90751"/>
<path d="M9.16631 4.27364L9.17815 9.56203L6.93823 8.18573V0.280518L9.16646 4.27364H9.16631Z" fill="#FAB718"/>
<path d="M15.5576 5.55061L11.272 5.55461L9.16631 4.27364L6.93823 0.280518L15.5574 5.55061H15.5576Z" fill="#ED6F26"/>
<path d="M9.17815 14.7365V12.1707L6.93823 10.8206L6.93946 18.7336L9.17815 14.7365Z" fill="#63B22F"/>
<path d="M11.2669 13.4648L2.83243 8.29148L0.5979 4.29712L15.5486 13.4596L11.2668 13.4648H11.2669Z" fill="#1487C9"/>
<path d="M6.93939 18.7338L9.17777 14.7367L11.2665 13.4649L15.5481 13.4597L6.93939 18.7338Z" fill="#017F36"/>
<path d="M0.600586 14.7145L6.95665 10.8209L4.81976 9.50977L2.83266 10.728L0.600586 14.7145Z" fill="#984995"/>
</svg>
