<svg width="60" height="19" viewBox="0 0 60 19" fill="none" xmlns="http://www.w3.org/2000/svg">
<path fill-rule="evenodd" clip-rule="evenodd" d="M33.2164 1.9486C33.7082 0.759954 34.7792 0 35.9569 0H40.4415V18.4532H35.1577V7.55082H34.7792L31.0614 16.5046C30.5664 17.6933 29.4954 18.4532 28.3209 18.4532H23.8331V0H29.1201V10.9057H29.4954L33.2164 1.9486ZM13.0326 2.42601C13.3982 0.990538 14.563 0 15.8832 0H21.0666V18.4532H15.8734V7.54757H15.5046L12.5375 18.4532H8.83274L5.86568 7.54757H5.49358V18.4532H0.306885V0H5.49035C6.81048 0 7.97207 0.990538 8.33769 2.42601L10.4991 10.9057H10.8712L13.0326 2.42601ZM43.2112 9.22662H59.8196C59.0237 11.4643 56.8914 13.0719 54.3773 13.0719H48.592V18.4532H43.2112V9.22662Z" fill="#1B6847"/>
<path fill-rule="evenodd" clip-rule="evenodd" d="M42.4506 0.280518C43.1657 4.65512 46.5631 7.97099 50.6497 7.97099H59.7774C59.8518 7.55529 59.8906 7.1266 59.8906 6.68816C59.8906 3.15145 57.3442 0.280518 54.2056 0.280518H42.4506Z" fill="url(#paint0_linear_311_4619)"/>
<defs>
<linearGradient id="paint0_linear_311_4619" x1="42.4516" y1="4.12549" x2="59.891" y2="4.12549" gradientUnits="userSpaceOnUse">
<stop stop-color="#3EADFF"/>
<stop offset="1" stop-color="#335CDD"/>
</linearGradient>
</defs>
</svg>
