<svg width="55" height="19" viewBox="0 0 55 19" fill="none" xmlns="http://www.w3.org/2000/svg">
<path fill-rule="evenodd" clip-rule="evenodd" d="M26.756 0.9317L23.1463 18.2996H18.7788L22.3915 0.9317H26.756ZM50.0028 18.2996L49.4732 15.7071H43.8731L42.963 18.2996H38.3764L44.9292 2.20349C45.2427 1.43002 45.9488 0.9317 46.7888 0.9317H50.5141L54.0416 18.2996H50.0028ZM45.13 12.3626H48.7519L47.4279 6.05556L45.13 12.3626ZM38.6046 12.6285C38.6229 7.91739 32.4445 7.65753 32.4871 5.55112C32.4992 4.91217 33.0775 4.23041 34.3376 4.05615C34.9645 3.97055 36.6902 3.90329 38.6442 4.85408L39.4112 1.06927C38.3581 0.668781 37.0068 0.280518 35.3267 0.280518C31.0109 0.280518 27.9704 2.70487 27.9461 6.18091C27.9187 8.75201 30.1161 10.1828 31.7718 11.0388C33.4701 11.9131 34.0423 12.4726 34.0362 13.2553C34.021 14.4537 32.6788 14.9826 31.4218 15.004C29.2274 15.0407 27.9521 14.3742 26.9356 13.8759L26.1473 17.786C27.1639 18.2813 29.0478 18.7154 31.0018 18.7338C35.5885 18.7338 38.5894 16.34 38.6046 12.6285ZM20.5167 0.9317L13.4434 18.2996H8.82635L5.34451 4.4383C5.1345 3.58535 4.94884 3.27046 4.30665 2.91276C3.25966 2.32578 1.52483 1.77549 0 1.43308L0.103481 0.9317H7.53283C8.47938 0.9317 9.33158 1.57983 9.54768 2.70182L11.386 12.7539L15.93 0.9317H20.5167Z" fill="#1A6BC8"/>
</svg>
