<svg width="32" height="19" viewBox="0 0 32 19" fill="none" xmlns="http://www.w3.org/2000/svg">
<path fill-rule="evenodd" clip-rule="evenodd" d="M11.8916 16.7667H20.1883V2.26147H11.8916V16.7667Z" fill="#FF723A"/>
<path fill-rule="evenodd" clip-rule="evenodd" d="M12.4202 9.50714C12.4202 6.56539 13.8363 3.94257 16.0412 2.25451C14.4279 1.02008 12.3928 0.280518 10.1823 0.280518C4.94792 0.280518 0.702332 4.4127 0.702332 9.50714C0.702332 14.6016 4.94792 18.7338 10.1823 18.7338C12.3928 18.7338 14.4279 17.9969 16.0412 16.7598C13.8363 15.0717 12.4202 12.4516 12.4202 9.50714Z" fill="#F53B4A"/>
<path fill-rule="evenodd" clip-rule="evenodd" d="M21.9006 18.7283C19.6874 18.7283 17.655 17.9914 16.0416 16.757C18.2466 15.0689 19.6627 12.4461 19.6627 9.50439C19.6627 6.56265 18.2466 3.94257 16.0416 2.25451C17.655 1.01733 19.6874 0.280518 21.9006 0.280518C27.135 0.280518 31.3778 4.40995 31.3778 9.50439C31.3778 14.5988 27.135 18.7283 21.9006 18.7283Z" fill="#FFB32B"/>
</svg>
