<svg width="172" height="172" viewBox="0 0 172 172" fill="none" xmlns="http://www.w3.org/2000/svg">
<path d="M131.76 45.7603C121.088 33.6239 106.032 26.2241 89.9036 25.1888C73.7755 24.1535 57.8967 29.5674 45.7603 40.2397C33.6239 50.9119 26.2241 65.9682 25.1888 82.0963C24.1535 98.2244 29.5675 114.103 40.2397 126.24L58.3125 110.347C51.8552 103.004 48.5794 93.3964 49.2059 83.638C49.8323 73.8796 54.3096 64.7697 61.6528 58.3124C68.9959 51.8552 78.6035 48.5794 88.3619 49.2058C98.1203 49.8322 107.23 54.3095 113.688 61.6527L131.76 45.7603Z" fill="white"/>
<path fill-rule="evenodd" clip-rule="evenodd" d="M106.058 73.5893L134.836 48.2103V152.058H114.113V99.4653L53.5081 152.058H17.0804L42.8672 129.317L52.4279 140.233L54.5204 138.4L44.9534 127.477L63.1543 111.426L72.7751 122.411L74.8676 120.578L65.2406 109.586L83.5435 93.4449L93.2216 104.495L95.3141 102.662L85.6297 91.605L103.972 75.4292L113.718 86.5567L115.81 84.724L106.058 73.5893Z" fill="white"/>
</svg>
