<svg width="23" height="26" viewBox="0 0 23 26" fill="none" xmlns="http://www.w3.org/2000/svg">
<path fill-rule="evenodd" clip-rule="evenodd" d="M12.1478 9.25179L12.1309 18.5037L11.9652 18.9505C11.739 19.5607 11.5158 19.9198 11.091 20.357C10.6546 20.8061 10.2272 21.0673 9.56246 21.2909C9.13289 21.4354 8.95836 21.4597 8.34086 21.4613C7.71584 21.4628 7.55547 21.4408 7.13004 21.2949C6.52388 21.0871 6.03305 20.7826 5.61934 20.3576C3.99888 18.6929 4.22384 16.0639 6.09783 14.7661C6.84657 14.2476 7.66341 14.0248 8.81622 14.0248H9.46849V11.8663C9.46849 10.22 9.45013 9.69659 9.39112 9.66063C9.21991 9.55629 7.49408 9.55975 6.86117 9.6657C4.8233 10.0068 2.91786 11.1492 1.66275 12.7825C1.15262 13.4462 0.512633 14.7242 0.298008 15.5075C0.0630231 16.3652 -0.000125106 16.8559 1.85968e-07 17.8241C0.000376061 20.0635 0.825297 22.01 2.44801 23.6002C3.42178 24.5545 4.46214 25.1923 5.70973 25.6001C6.71545 25.9287 7.48299 26.0322 8.61456 25.9917C9.91396 25.9451 10.9349 25.6864 12.1309 25.1007C14.5512 23.9154 16.0633 21.9171 16.5854 19.2141C16.6875 18.6852 16.7008 18.1409 16.7202 13.7005C16.732 10.9908 16.7528 8.77383 16.7665 8.77383C16.7801 8.77383 16.9673 8.87557 17.1825 8.99987C18.2105 9.59398 19.7722 10.1949 20.9338 10.4431C21.2605 10.513 21.8591 10.587 22.2639 10.6077L23 10.6453V8.4516V6.25791L22.5145 6.18069C22.2474 6.13825 21.7569 6.02378 21.4245 5.92636C18.7536 5.14396 17.1897 3.35046 16.7159 0.526646L16.633 0.0324324L14.3988 0.0161851L12.1646 0L12.1478 9.25179Z" fill="white" fill-opacity="1"/>
</svg>
