<svg width="31" height="18" viewBox="0 0 31 18" fill="none" xmlns="http://www.w3.org/2000/svg">
<path fill-rule="evenodd" clip-rule="evenodd" d="M13.3333 0.00865034C12.9407 0.0225866 12.7718 0.0337129 12.7586 0.0465127C12.7522 0.0527316 12.6859 0.0578266 12.6111 0.0578266C12.5364 0.0578266 12.4701 0.0631212 12.4637 0.0695898C12.4573 0.0760459 12.3859 0.0840506 12.3052 0.0873598C12.1336 0.0943779 12.0405 0.105679 12.0243 0.121476C12.0179 0.127682 11.9893 0.132753 11.9607 0.132753C11.9322 0.132753 11.9057 0.137897 11.9019 0.144191C11.8941 0.157041 11.7615 0.187873 11.632 0.206967C11.583 0.214172 11.5148 0.235601 11.4729 0.256955C11.4325 0.277497 11.3874 0.29448 11.3726 0.294705C11.3579 0.294917 11.3424 0.300712 11.3382 0.30758C11.3341 0.314448 11.3158 0.320155 11.2977 0.320255C11.258 0.32048 11.1891 0.343944 11.148 0.371229C11.1314 0.382193 11.089 0.400912 11.0536 0.412826C11.0183 0.424739 10.9663 0.454135 10.9381 0.478161C10.9099 0.502187 10.8617 0.534892 10.831 0.550839C10.8003 0.566786 10.7619 0.594446 10.7455 0.612291C10.7292 0.630136 10.7094 0.644747 10.7016 0.644747C10.6937 0.644747 10.6284 0.706386 10.5564 0.781712C10.4192 0.925195 10.3628 1.01778 10.3461 1.1265C10.3334 1.20878 10.3811 1.23719 10.5549 1.25106C10.6551 1.25906 10.7203 1.27512 10.7856 1.30792C10.8114 1.32093 10.8428 1.33157 10.8552 1.33157C10.8676 1.33157 10.8812 1.33719 10.8854 1.34406C10.8895 1.35092 10.9105 1.35682 10.932 1.35714C10.9535 1.35747 10.9883 1.36731 11.0094 1.379C11.0501 1.40161 11.1913 1.47313 11.222 1.48674C11.2321 1.49122 11.2514 1.50169 11.265 1.51C11.2785 1.51832 11.3116 1.53865 11.3384 1.55518C11.3652 1.57172 11.4037 1.60034 11.4239 1.61878C11.4441 1.63723 11.4799 1.66413 11.5035 1.67855C11.583 1.72725 11.7403 1.91331 11.833 2.06834C11.9048 2.18863 11.9196 2.21839 11.9196 2.24281C11.9196 2.25593 11.9251 2.27014 11.9318 2.27439C11.9386 2.27863 11.9441 2.29549 11.9441 2.31185C11.9441 2.32821 11.9494 2.34498 11.956 2.3491C11.9665 2.35574 11.9836 2.39015 12.018 2.47419C12.0236 2.48793 12.0316 2.52164 12.0356 2.54911C12.0396 2.57659 12.0461 2.62017 12.0499 2.64597C12.0537 2.67177 12.0618 2.69598 12.0678 2.69978C12.0738 2.70357 12.0787 2.72288 12.0787 2.74267C12.0787 2.76247 12.0842 2.78213 12.091 2.78638C12.0977 2.79063 12.1032 2.81036 12.1032 2.83024C12.1032 2.85012 12.1085 2.87929 12.115 2.89506C12.1214 2.91083 12.133 2.99399 12.1408 3.07984C12.1541 3.22803 12.1667 3.34139 12.1837 3.46696C12.1879 3.49787 12.1963 3.52849 12.2024 3.53502C12.2084 3.54153 12.2134 3.65702 12.2134 3.79164C12.2134 3.92625 12.2184 4.04173 12.2245 4.04826C12.2345 4.05887 12.2519 4.98834 12.2526 5.54615C12.2531 5.95149 12.2354 6.65762 12.2244 6.66942C12.2183 6.67595 12.2134 6.74444 12.2134 6.82166C12.2134 6.90176 12.2081 6.96534 12.2011 6.96975C12.1944 6.97399 12.1889 7.00771 12.1889 7.04467C12.1889 7.08164 12.1843 7.11478 12.1787 7.11831C12.1731 7.12185 12.1614 7.19945 12.1526 7.29076C12.1294 7.53413 12.1093 7.67455 12.0915 7.71901C12.0754 7.75913 12.056 7.83947 12.0478 7.90008C12.0351 7.99396 12.0215 8.06732 12.012 8.09364C11.9961 8.1381 11.9761 8.18061 11.9621 8.19978C11.9546 8.21008 11.9413 8.2438 11.9326 8.27471C11.9062 8.36844 11.8921 8.40139 11.8633 8.43626C11.8482 8.45461 11.8219 8.50021 11.805 8.53762C11.7601 8.63681 11.6075 8.78606 11.5001 8.83575C11.4545 8.85684 11.4066 8.87411 11.3937 8.87411C11.3808 8.87411 11.3669 8.87973 11.3627 8.8866C11.3585 8.89347 11.3062 8.89909 11.2464 8.89909C11.1866 8.89909 11.1343 8.89347 11.1302 8.8866C11.126 8.87973 11.1063 8.87411 11.0864 8.87411C11.0665 8.87411 11.0407 8.86916 11.029 8.86309C10.9985 8.84724 10.9553 8.82932 10.8858 8.8037C10.8524 8.79137 10.8063 8.76424 10.7832 8.74341C10.7602 8.72258 10.7182 8.69148 10.6899 8.67431C10.5682 8.60062 10.524 8.56567 10.3591 8.41298C10.3091 8.36675 10.0079 8.02946 9.96184 7.96817C9.94143 7.94102 9.9115 7.89914 9.89534 7.8751C9.87918 7.85106 9.84334 7.80918 9.8157 7.78203C9.78807 7.75488 9.76545 7.72756 9.76545 7.7213C9.76545 7.71506 9.75138 7.69232 9.73419 7.67077C9.6748 7.59636 9.5742 7.45662 9.54677 7.41044C9.53165 7.38496 9.49755 7.3373 9.471 7.30453C9.44446 7.27175 9.42274 7.23868 9.42274 7.23103C9.42274 7.22338 9.41172 7.20695 9.39826 7.19452C9.3848 7.1821 9.37378 7.16534 9.37378 7.1573C9.37378 7.14926 9.36001 7.12949 9.34318 7.11335C9.32635 7.09722 9.31258 7.07755 9.31258 7.06965C9.31258 7.06174 9.29853 7.0418 9.28135 7.02533C9.26418 7.00887 9.23989 6.97181 9.22738 6.94297C9.21489 6.91414 9.18729 6.86622 9.16605 6.83649C9.14482 6.80676 9.09222 6.72624 9.04916 6.65756C9.00612 6.58887 8.95379 6.50739 8.93291 6.47648C8.84651 6.34866 8.83506 6.33018 8.80507 6.27044C8.78784 6.2361 8.7573 6.18552 8.7372 6.15805C8.71712 6.13058 8.69102 6.08836 8.67922 6.06423C8.66742 6.0401 8.6447 6.00174 8.62871 5.97896C8.61274 5.9562 8.58368 5.9057 8.56413 5.86674C8.52286 5.78443 8.4934 5.73413 8.43249 5.64192C8.40829 5.60532 8.37473 5.54871 8.3579 5.51616C8.34107 5.48359 8.30775 5.42926 8.28386 5.39542C8.25997 5.36156 8.22722 5.30577 8.21106 5.27143C8.19492 5.23708 8.17377 5.19926 8.16407 5.18736C8.13503 5.15174 8.00295 4.8895 8.00295 4.86746C8.00295 4.86124 7.99429 4.84881 7.98369 4.83984C7.9731 4.83087 7.9449 4.78101 7.92102 4.72904C7.89714 4.67707 7.86539 4.62051 7.85047 4.60334C7.83555 4.58616 7.81085 4.54121 7.7956 4.50343C7.78034 4.46566 7.75534 4.4207 7.74003 4.40353C7.72473 4.38636 7.70276 4.34264 7.69123 4.30637C7.6797 4.27009 7.65837 4.22513 7.64383 4.20646C7.60842 4.16097 7.57457 4.09762 7.57457 4.07687C7.57457 4.06759 7.54714 4.00383 7.51363 3.93518C7.48011 3.86654 7.45257 3.80253 7.45243 3.79294C7.45228 3.78333 7.43364 3.74681 7.411 3.71177C7.38835 3.67671 7.3622 3.62555 7.35286 3.59808C7.34353 3.57061 7.32076 3.52484 7.30224 3.49637C7.28372 3.46789 7.26849 3.43699 7.26839 3.42768C7.26814 3.40233 7.23202 3.30106 7.21562 3.27964C7.19213 3.24899 7.17153 3.20793 7.145 3.13882C7.13123 3.10296 7.10383 3.04783 7.08414 3.01635C7.06443 2.98486 7.04073 2.93336 7.03145 2.9019C7.02217 2.87045 6.99752 2.82035 6.97666 2.79058C6.95582 2.76079 6.92824 2.70268 6.91541 2.6614C6.90257 2.62014 6.88144 2.56676 6.86847 2.54277C6.85548 2.5188 6.83227 2.45798 6.81689 2.40764C6.8015 2.3573 6.77361 2.28644 6.75491 2.25016C6.73619 2.21388 6.71146 2.15392 6.69992 2.1169C6.6712 2.02483 6.64828 1.97481 6.62622 1.95614C6.616 1.94748 6.60764 1.92738 6.60764 1.91146C6.60764 1.89552 6.60213 1.87903 6.5954 1.87478C6.58867 1.87054 6.58316 1.85445 6.58316 1.83903C6.58316 1.82361 6.56587 1.7832 6.54473 1.74923C6.5236 1.71526 6.49618 1.65136 6.48379 1.60726C6.47142 1.56314 6.44827 1.51256 6.43237 1.49487C6.40715 1.46677 6.35061 1.35759 6.35061 1.33695C6.35061 1.3119 6.17126 1.11734 6.08089 1.04435C6.00148 0.980203 5.82036 0.882999 5.77913 0.882399C5.76439 0.882187 5.74891 0.876393 5.74475 0.869525C5.74059 0.862656 5.72276 0.857037 5.70512 0.857037C5.66608 0.857037 5.6038 0.837381 5.5314 0.802216L5.47717 0.775867H3.11165C1.23554 0.775867 0.742949 0.779101 0.73082 0.791477C0.722399 0.800068 0.694921 0.807086 0.669732 0.807086C0.644543 0.807086 0.620541 0.812706 0.61638 0.819574C0.612218 0.826442 0.595695 0.832062 0.579661 0.832062C0.563627 0.832062 0.547104 0.837681 0.542943 0.844549C0.538781 0.851417 0.512295 0.857125 0.484082 0.857224C0.418809 0.857462 0.356093 0.879777 0.301676 0.922135C0.278115 0.940467 0.237015 0.967066 0.210333 0.981264C0.148829 1.01397 0.112355 1.05493 0.0540947 1.15674C0.0132023 1.22818 0.00686218 1.25037 0.00117079 1.3419C-0.00515706 1.44375 0.015222 1.61208 0.036886 1.63689C0.0425774 1.64342 0.0472406 1.66134 0.0472406 1.67674C0.0472406 1.69214 0.0527484 1.7082 0.0594801 1.71244C0.0662119 1.71669 0.0717197 1.73636 0.0717197 1.75615C0.0717197 1.77594 0.0772275 1.79561 0.0839592 1.79986C0.090691 1.8041 0.0961988 1.82328 0.0961988 1.84248C0.0961988 1.86167 0.126932 1.94423 0.164495 2.02593C0.202059 2.10764 0.245754 2.20258 0.261592 2.23692C0.27743 2.27126 0.302154 2.33027 0.316523 2.36804C0.330892 2.40582 0.352666 2.45423 0.364918 2.47564C0.37717 2.49704 0.399605 2.55043 0.41477 2.59427C0.429947 2.63811 0.456911 2.69647 0.474695 2.72394C0.492491 2.75142 0.517509 2.8048 0.530287 2.84257C0.543077 2.88035 0.568266 2.93683 0.586258 2.96809C0.604263 2.99935 0.626025 3.04711 0.634617 3.07423C0.643209 3.10136 0.674285 3.16927 0.703685 3.22513C0.733084 3.28102 0.757135 3.33591 0.757135 3.34713C0.757135 3.36945 0.815077 3.48841 0.83078 3.4983C0.836153 3.5017 0.850474 3.53676 0.862591 3.57625C0.87472 3.61572 0.89636 3.66572 0.910692 3.68735C0.925012 3.70898 0.943482 3.74551 0.951731 3.76852C0.97364 3.82965 1.0165 3.91991 1.03386 3.94149C1.04214 3.95179 1.06108 3.99675 1.07593 4.04139C1.09077 4.08603 1.11235 4.1338 1.12388 4.14754C1.14657 4.17458 1.19776 4.28281 1.19776 4.30377C1.19776 4.31085 1.21172 4.33818 1.2288 4.36451C1.24587 4.39083 1.27326 4.45014 1.28968 4.49629C1.30609 4.54246 1.33245 4.59592 1.34827 4.6151C1.36409 4.63428 1.38352 4.66757 1.39144 4.68909C1.39936 4.7106 1.41245 4.74617 1.42054 4.76812C1.42865 4.79006 1.44978 4.82519 1.46753 4.84617C1.48528 4.86715 1.51027 4.91521 1.52306 4.95299C1.53586 4.99077 1.56113 5.046 1.5792 5.07572C1.59728 5.10544 1.61576 5.15208 1.62029 5.17935C1.62481 5.20664 1.64739 5.2542 1.67049 5.28507C1.69358 5.31594 1.72124 5.36764 1.73197 5.39997C1.74269 5.43229 1.77008 5.48742 1.79283 5.52248C1.8156 5.55752 1.83462 5.59404 1.83511 5.60365C1.83599 5.62088 1.8434 5.63395 1.91235 5.74011C1.93175 5.76999 1.95236 5.81164 1.95814 5.83265C1.96392 5.85365 1.98108 5.89014 1.99629 5.91373C2.01149 5.93732 2.03317 5.97103 2.04445 5.98865C2.05574 6.00627 2.06557 6.03192 2.06628 6.04566C2.06699 6.0594 2.08384 6.09873 2.10372 6.13307C2.13837 6.19294 2.16517 6.247 2.19348 6.31415C2.20072 6.33132 2.21703 6.36107 2.22972 6.38027C2.25617 6.42025 2.32803 6.55491 2.39102 6.68253C2.41475 6.73061 2.44504 6.7868 2.45833 6.80741C2.47164 6.82801 2.49666 6.87571 2.51394 6.91343C2.53122 6.95113 2.55522 6.99327 2.56728 7.00708C2.57935 7.02088 2.60165 7.06428 2.61685 7.1035C2.63204 7.14273 2.65199 7.18116 2.66116 7.18894C2.67034 7.19671 2.69949 7.2461 2.72595 7.2987C2.75241 7.3513 2.79341 7.43085 2.81704 7.4755C2.84069 7.52014 2.88169 7.59881 2.90815 7.65032C2.93461 7.70184 2.97107 7.76605 2.98916 7.79302C3.00727 7.81999 3.02539 7.85652 3.02946 7.87419C3.0384 7.91315 3.07697 7.98253 3.11325 8.02495C3.12792 8.04212 3.14747 8.07584 3.15666 8.09988C3.16585 8.12392 3.19703 8.17975 3.22593 8.22396C3.25484 8.26816 3.27848 8.30987 3.27848 8.31663C3.27848 8.3234 3.28635 8.33781 3.29597 8.34865C3.30558 8.3595 3.34112 8.42547 3.37494 8.49526C3.40876 8.56505 3.44179 8.62554 3.44836 8.62967C3.45492 8.63382 3.46685 8.65819 3.47488 8.68385C3.4829 8.70952 3.50473 8.74736 3.5234 8.76797C3.56202 8.8106 3.65072 8.95026 3.70734 9.05758C3.78443 9.2037 3.83643 9.29499 3.88128 9.36289C3.90652 9.40112 3.92718 9.43932 3.92718 9.44777C3.92718 9.45623 3.95196 9.49533 3.98226 9.53467C4.01255 9.57401 4.03733 9.61224 4.03733 9.6196C4.03733 9.62698 4.05866 9.66597 4.08473 9.70624C4.1108 9.74652 4.14797 9.8042 4.16734 9.83442C4.18672 9.86462 4.20668 9.89553 4.21171 9.9031C4.24207 9.94869 4.32392 10.0894 4.35413 10.1479C4.37364 10.1856 4.40121 10.2272 4.41538 10.2403C4.42955 10.2533 4.45525 10.2955 4.4725 10.3339C4.48975 10.3723 4.51391 10.415 4.52619 10.4288C4.53848 10.4426 4.55812 10.4731 4.56983 10.4967C4.58154 10.5204 4.62281 10.5822 4.66154 10.6341C4.70027 10.686 4.74246 10.7482 4.75529 10.7722C4.79423 10.8452 4.84068 10.9152 4.86202 10.9333C4.87314 10.9427 4.89574 10.9779 4.91225 11.0114C4.92875 11.0449 4.96034 11.097 4.98244 11.1271C5.00454 11.1573 5.03363 11.2004 5.0471 11.2231C5.06056 11.2458 5.07757 11.2744 5.08491 11.2867C5.09224 11.299 5.10738 11.3193 5.11856 11.332C5.12974 11.3446 5.1389 11.3606 5.1389 11.3676C5.1389 11.3746 5.14991 11.3904 5.16337 11.4029C5.17684 11.4153 5.18785 11.4299 5.18785 11.4354C5.18785 11.4517 5.25671 11.5505 5.29078 11.583C5.30822 11.5996 5.32249 11.6177 5.32249 11.623C5.32249 11.6402 5.50756 11.9004 5.52972 11.9143C5.53608 11.9183 5.55845 11.951 5.57942 11.9869C5.61397 12.0461 5.64736 12.0939 5.72909 12.2013C5.74443 12.2214 5.7684 12.2581 5.78233 12.2829C5.79627 12.3076 5.81922 12.3417 5.83333 12.3586C5.89076 12.4275 5.96587 12.525 5.97839 12.5469C5.98572 12.5598 6.00087 12.5806 6.01205 12.5932C6.02323 12.6058 6.03238 12.6217 6.03238 12.6284C6.03238 12.6352 6.04891 12.6569 6.0691 12.6766C6.0893 12.6964 6.10582 12.7187 6.10582 12.7263C6.10582 12.7339 6.1306 12.7649 6.1609 12.7952C6.19119 12.8256 6.21598 12.856 6.21598 12.8628C6.21598 12.8696 6.23208 12.8923 6.25178 12.9133C6.27147 12.9342 6.30589 12.9776 6.32827 13.0098C6.37449 13.0762 6.56843 13.3195 6.59021 13.3385C6.61156 13.357 6.71737 13.483 6.76991 13.5524C6.96007 13.8036 7.23111 14.1079 7.67264 14.5658C7.84289 14.7423 8.18787 15.0776 8.24287 15.1201C8.26238 15.1351 8.31756 15.1843 8.36547 15.2295C8.4134 15.2746 8.48661 15.3396 8.52815 15.3739C8.56969 15.4083 8.62763 15.4576 8.6569 15.4835C8.71472 15.5347 8.74452 15.5576 8.86201 15.6412C8.9045 15.6714 8.95551 15.7126 8.97535 15.7327C8.99519 15.7528 9.03099 15.7795 9.0549 15.792C9.07882 15.8044 9.10888 15.8264 9.12171 15.8409C9.13453 15.8554 9.15025 15.8672 9.15663 15.8672C9.16302 15.8672 9.19636 15.893 9.23073 15.9245C9.26509 15.9561 9.31098 15.9912 9.3327 16.0026C9.42264 16.0498 9.57209 16.1449 9.61086 16.1796C9.63371 16.2001 9.6577 16.2169 9.66419 16.2169C9.67068 16.2169 9.68595 16.2281 9.69813 16.2418C9.71031 16.2556 9.72701 16.2668 9.73525 16.2668C9.74348 16.2668 9.75677 16.2749 9.76479 16.2847C9.77279 16.2946 9.80239 16.3148 9.83054 16.3295C9.85869 16.3443 9.89549 16.3694 9.91232 16.3851C9.94762 16.4182 10.0133 16.4541 10.0386 16.4541C10.0481 16.4541 10.0696 16.4651 10.0862 16.4785C10.1029 16.4919 10.1483 16.5196 10.1871 16.5401C10.2258 16.5607 10.2668 16.586 10.2781 16.5965C10.2895 16.6069 10.3426 16.6389 10.3962 16.6675C10.5556 16.7525 10.8096 16.8829 10.8741 16.9129C10.9072 16.9283 10.9508 16.9518 10.971 16.9651C10.9912 16.9784 11.0175 16.9897 11.0294 16.9902C11.0412 16.9907 11.0605 16.996 11.0722 17.002C11.0839 17.0081 11.1329 17.0334 11.1812 17.0582C11.2295 17.0831 11.2745 17.1035 11.2814 17.1035C11.2882 17.1035 11.3512 17.1316 11.4215 17.1659C11.4918 17.2003 11.5559 17.2284 11.5638 17.2284C11.5845 17.2284 11.6842 17.276 11.6927 17.2899C11.7012 17.3041 11.8209 17.3407 11.8584 17.3407C11.8732 17.3407 11.9246 17.3597 11.9728 17.3829C12.021 17.4061 12.0907 17.4316 12.1277 17.4395C12.1647 17.4474 12.228 17.4701 12.2684 17.4901C12.3515 17.5312 12.423 17.5529 12.4756 17.553C12.516 17.5531 12.5754 17.5707 12.6479 17.6041C12.7238 17.6391 12.8104 17.6654 12.8495 17.6654C12.8691 17.6654 12.8885 17.671 12.8927 17.6779C12.8968 17.6848 12.9146 17.6904 12.9323 17.6904C12.9632 17.6904 13.025 17.7072 13.0762 17.7295C13.1238 17.7502 13.2613 17.777 13.3822 17.7891C13.4496 17.7959 13.5349 17.8103 13.5719 17.8211C13.609 17.832 13.6613 17.844 13.6882 17.8478C13.7151 17.8516 13.7482 17.8595 13.7617 17.8654C13.7878 17.8769 13.8465 17.8874 13.9453 17.8983C13.9789 17.902 14.0117 17.9101 14.0181 17.9163C14.0245 17.9226 14.0716 17.9277 14.1227 17.9277C14.1739 17.9277 14.221 17.9328 14.2274 17.9391C14.2338 17.9455 14.2748 17.9538 14.3186 17.9576C14.3623 17.9615 14.4504 17.9707 14.5144 17.9782C14.6973 17.9994 16.9367 18.009 17.0883 17.9891C17.1542 17.9805 17.211 17.9688 17.2145 17.963C17.218 17.9573 17.2328 17.9522 17.2476 17.9517C17.2623 17.9512 17.2909 17.94 17.3111 17.9269C17.3571 17.8969 17.3838 17.8847 17.5804 17.8034C17.5939 17.7978 17.6274 17.7838 17.6548 17.7721C17.7054 17.7507 17.8421 17.6208 17.8984 17.5406C17.9418 17.4788 17.9904 17.3704 17.9904 17.3354C17.9904 17.3191 18.0062 17.2753 18.0254 17.238C18.0714 17.1488 18.0768 17.1005 18.0889 16.6727C18.1016 16.2215 18.127 15.9393 18.1619 15.861C18.168 15.8472 18.1759 15.8023 18.1794 15.7611C18.1987 15.5338 18.2221 15.3697 18.2365 15.3606C18.2425 15.3568 18.2475 15.3427 18.2475 15.3293C18.2475 15.3159 18.2525 15.2952 18.2586 15.2832C18.2648 15.2713 18.2764 15.2278 18.2846 15.1866C18.3124 15.0454 18.3378 14.9618 18.3722 14.8975C18.3911 14.8621 18.4067 14.8227 18.4068 14.8101C18.407 14.7707 18.4426 14.6801 18.479 14.6262C18.4981 14.5979 18.523 14.5466 18.5345 14.5123C18.5459 14.478 18.5617 14.4414 18.5696 14.4311C18.5855 14.4105 18.6034 14.3791 18.6402 14.3068C18.6684 14.2517 18.9011 14.0176 18.9818 13.9632C19.0121 13.9428 19.055 13.9105 19.0771 13.8914C19.0992 13.8723 19.131 13.8567 19.1477 13.8567C19.1643 13.8567 19.1876 13.8516 19.1993 13.8455C19.236 13.8261 19.3162 13.797 19.3757 13.7815C19.4475 13.7627 19.5956 13.7782 19.6734 13.8126C19.6936 13.8215 19.7321 13.8358 19.759 13.8443C19.786 13.8528 19.8176 13.8647 19.8292 13.8707C19.8409 13.8767 19.858 13.8817 19.8672 13.8817C19.8874 13.8817 19.9581 13.9167 19.9668 13.931C19.9702 13.9367 20.002 13.9566 20.0374 13.9753C20.0728 13.994 20.1128 14.0193 20.1262 14.0315C20.1397 14.0437 20.1825 14.0743 20.2214 14.0994C20.4095 14.221 20.6465 14.4494 21.1667 15.0107C21.2743 15.1269 21.3713 15.2308 21.3822 15.2417C21.393 15.2526 21.404 15.2679 21.4066 15.2757C21.4093 15.2834 21.4423 15.3256 21.4802 15.3693C21.518 15.4131 21.6214 15.536 21.7099 15.6424C21.7984 15.7489 21.9382 15.9082 22.0206 15.9965C22.1029 16.0849 22.1785 16.1699 22.1886 16.1856C22.2567 16.2915 22.9939 17.0422 23.0729 17.0862C23.0866 17.0938 23.1233 17.1233 23.1542 17.1516C23.28 17.2667 23.3232 17.3013 23.3733 17.3272C23.4022 17.3421 23.4463 17.3731 23.4712 17.3961C23.4962 17.419 23.54 17.4503 23.5687 17.4655C23.5973 17.4807 23.6236 17.4979 23.627 17.5036C23.6305 17.5093 23.6649 17.5294 23.7035 17.5483C23.7421 17.5672 23.7943 17.6013 23.8195 17.6241C23.8448 17.6468 23.8738 17.6654 23.8839 17.6654C23.9054 17.6654 24.01 17.7126 24.0368 17.7344C24.061 17.7542 24.1685 17.7903 24.203 17.7903C24.218 17.7903 24.2772 17.8156 24.3347 17.8465C24.3921 17.8774 24.4514 17.9027 24.4665 17.9027C24.4925 17.9027 24.5514 17.9189 24.6059 17.9411C24.6194 17.9466 24.6689 17.9612 24.7161 17.9737C24.7974 17.9952 24.924 17.9964 27.2252 17.9963C29.6183 17.9962 29.7057 17.9949 29.8842 17.958C29.9061 17.9535 29.924 17.9448 29.924 17.9387C29.924 17.9327 29.9402 17.9277 29.96 17.9277C29.9798 17.9277 29.9994 17.9221 30.0035 17.9152C30.0077 17.9083 30.0255 17.9027 30.0432 17.9027C30.076 17.9027 30.1458 17.8833 30.1839 17.8637C30.1956 17.8577 30.2144 17.8527 30.2258 17.8527C30.2371 17.8527 30.2551 17.8447 30.2657 17.8349C30.2764 17.8251 30.3291 17.805 30.383 17.7903C30.4371 17.7755 30.5 17.7486 30.5236 17.7301C30.5471 17.7117 30.5885 17.6866 30.6154 17.6744C30.6896 17.6407 30.8596 17.4524 30.9111 17.347C30.989 17.1875 30.9934 17.166 30.9942 16.9411C30.9949 16.7501 30.9929 16.7306 30.9662 16.6727C30.9226 16.5781 30.9185 16.5665 30.8985 16.4813C30.8882 16.4378 30.8687 16.3844 30.855 16.3626C30.8413 16.3408 30.8132 16.2893 30.7927 16.2481C30.7721 16.2069 30.7437 16.1535 30.7296 16.1294C30.7155 16.1054 30.6902 16.0605 30.6734 16.0295C30.6567 15.9986 30.6354 15.9645 30.6262 15.9536C30.617 15.9428 30.6094 15.9294 30.6094 15.9238C30.6094 15.9182 30.5798 15.8681 30.5436 15.8124C30.5075 15.7567 30.4662 15.6876 30.452 15.6589C30.4378 15.6302 30.4207 15.6032 30.4141 15.599C30.4074 15.5948 30.3812 15.5593 30.3558 15.5201C30.3304 15.4809 30.3003 15.4376 30.2888 15.4239C30.2569 15.3855 30.2091 15.3172 30.1719 15.2567C30.1533 15.2265 30.1158 15.176 30.0885 15.1443C30.0612 15.1126 30.0281 15.0719 30.0151 15.0537C30.002 15.0356 29.9574 14.9786 29.9159 14.9272C29.8743 14.8757 29.8265 14.8119 29.8094 14.7853C29.7924 14.7588 29.7505 14.7095 29.7163 14.6759C29.6821 14.6422 29.6298 14.5776 29.6 14.5323C29.5703 14.4869 29.4603 14.3628 29.3555 14.2564C29.2508 14.1501 29.1651 14.0585 29.1651 14.0529C29.1651 14.0383 28.9011 13.7437 28.8551 13.7071C28.8338 13.69 28.814 13.6704 28.8113 13.6634C28.8062 13.6506 28.4711 13.3019 28.2411 13.07C28.1737 13.0022 28.0965 12.9303 28.0694 12.9104C28.0423 12.8904 27.9514 12.7996 27.8674 12.7087C27.7835 12.6177 27.6817 12.518 27.6413 12.4871C27.6009 12.4561 27.4898 12.354 27.3945 12.2602C27.2991 12.1664 27.1461 12.0194 27.0544 11.9336C26.8375 11.7306 26.6636 11.5581 26.6492 11.5318C26.6428 11.5203 26.5909 11.4605 26.5336 11.3989C26.3544 11.2061 26.2345 11.0711 26.2154 11.0406C26.1295 10.9033 26.0899 10.8302 26.079 10.7891C26.0719 10.7627 26.0566 10.7298 26.0449 10.716C26.0041 10.6683 25.9743 10.6032 25.9592 10.5287C25.9508 10.4875 25.939 10.4441 25.9328 10.4321C25.9184 10.4042 25.9182 10.0142 25.9325 10.0051C25.9385 10.0013 25.9465 9.97992 25.9502 9.95753C25.9739 9.81417 25.9876 9.76135 26.0185 9.69348C26.0376 9.65148 26.0605 9.59746 26.0694 9.57342C26.0783 9.54939 26.0954 9.51286 26.1076 9.49225C26.1197 9.47165 26.15 9.41265 26.175 9.36113C26.1999 9.30962 26.244 9.23239 26.2729 9.18949C26.3019 9.1466 26.3256 9.10682 26.3256 9.10113C26.3256 9.09542 26.3398 9.07714 26.3572 9.06048C26.3746 9.04383 26.3989 9.00773 26.4112 8.98026C26.4236 8.95279 26.4485 8.91626 26.4666 8.89909C26.4848 8.88192 26.5179 8.83977 26.5403 8.80543C26.6624 8.61808 26.6845 8.58625 26.7697 8.47451C26.834 8.39016 26.9008 8.28924 26.9008 8.27642C26.9008 8.27117 26.9173 8.25074 26.9375 8.231C26.9577 8.21126 26.9743 8.18975 26.9743 8.1832C26.9743 8.17665 26.9949 8.14675 27.0202 8.11676C27.1408 7.97342 27.1673 7.94024 27.1981 7.89383C27.2163 7.86636 27.2586 7.81017 27.2921 7.76896C27.3587 7.68708 27.4271 7.5909 27.4271 7.57929C27.4271 7.57525 27.4478 7.5479 27.473 7.51849C27.4983 7.4891 27.5354 7.44154 27.5556 7.41281C27.5758 7.38409 27.6178 7.33165 27.6489 7.29629C27.68 7.26092 27.7152 7.21232 27.727 7.18828C27.7389 7.16424 27.7712 7.11867 27.799 7.08702C27.8267 7.05536 27.8687 7.00018 27.8922 6.96438C27.9158 6.92857 27.9516 6.87743 27.9718 6.85071C27.992 6.824 28.0278 6.77573 28.0513 6.74345C28.0749 6.71117 28.1148 6.66114 28.1401 6.63229C28.1653 6.60345 28.186 6.57552 28.186 6.57027C28.186 6.565 28.2027 6.54033 28.2232 6.51547C28.2868 6.43812 28.3648 6.33346 28.4173 6.25495C28.445 6.21353 28.4759 6.17268 28.486 6.16419C28.496 6.1557 28.5042 6.14304 28.5042 6.13606C28.5042 6.12909 28.5249 6.09933 28.5501 6.06992C28.5754 6.04053 28.6125 5.99325 28.6327 5.96485C28.6529 5.93646 28.6846 5.89451 28.7031 5.87164C28.7216 5.84878 28.7368 5.82588 28.7368 5.82076C28.7368 5.81562 28.7535 5.79107 28.774 5.76621C28.8655 5.65491 28.9777 5.4971 29.0337 5.40077C29.0455 5.38039 29.0692 5.34857 29.0863 5.33005C29.1033 5.31155 29.1289 5.27673 29.1432 5.25269C29.1574 5.22865 29.1812 5.19494 29.1962 5.17777C29.2111 5.1606 29.2384 5.11845 29.2568 5.08411C29.2753 5.04977 29.3304 4.96801 29.3792 4.90243C29.4281 4.83683 29.4792 4.76097 29.4928 4.73384C29.5064 4.70671 29.5295 4.67344 29.5441 4.6599C29.5588 4.64638 29.58 4.61547 29.5913 4.59122C29.6026 4.56698 29.6477 4.4945 29.6914 4.43018C29.7352 4.36584 29.7829 4.29081 29.7974 4.26343C29.8119 4.23605 29.8399 4.19596 29.8596 4.17435C29.8794 4.15273 29.9096 4.10397 29.9267 4.06598C29.9438 4.028 29.967 3.9892 29.9781 3.97979C29.9973 3.96354 30.0346 3.90164 30.1321 3.72454C30.1932 3.61344 30.2185 3.57134 30.2637 3.50593C30.2855 3.47419 30.3258 3.40327 30.3531 3.34833C30.3805 3.29338 30.4131 3.22876 30.4257 3.20472C30.4383 3.18068 30.4768 3.0992 30.5113 3.02365C30.5769 2.88008 30.5911 2.85153 30.6479 2.74892C30.6669 2.71458 30.6825 2.67656 30.6826 2.66445C30.6829 2.64069 30.702 2.60143 30.7327 2.5616C30.7433 2.54787 30.7595 2.51134 30.7686 2.48043C30.7777 2.44953 30.8034 2.38493 30.8258 2.33686C30.8481 2.28881 30.8664 2.23997 30.8664 2.22833C30.8664 2.21671 30.8714 2.20407 30.8774 2.20027C30.888 2.19358 30.8949 2.15992 30.9097 2.04336C30.9165 1.98916 30.9211 1.97368 30.9499 1.906C30.9813 1.83225 30.9913 1.76348 30.9976 1.5785C31.0047 1.36858 30.9982 1.32966 30.9455 1.26913C30.9306 1.25196 30.9147 1.21688 30.9102 1.19118C30.9034 1.15228 30.8873 1.13239 30.814 1.07255C30.7241 0.999146 30.6781 0.969426 30.6546 0.969426C30.6473 0.969426 30.6212 0.955202 30.5966 0.93782C30.5319 0.89204 30.4292 0.857037 30.3595 0.857037C30.3044 0.857037 30.2529 0.845549 30.1871 0.81855C30.1585 0.806799 30.1077 0.799781 29.8995 0.778802C29.6775 0.756424 24.4001 0.768549 24.3776 0.791477C24.3692 0.800068 24.3526 0.807086 24.3407 0.807086C24.3288 0.807086 24.2994 0.818325 24.2754 0.832062C24.2515 0.845798 24.2186 0.857037 24.2024 0.857037C24.1861 0.857037 24.1694 0.862656 24.1653 0.869525C24.1611 0.876393 24.1476 0.882012 24.1353 0.882012C24.0921 0.882012 23.9212 1.07365 23.8226 1.23267C23.8158 1.24353 23.7978 1.27163 23.7825 1.2951C23.7673 1.31859 23.7518 1.35186 23.7481 1.36903C23.7445 1.3862 23.7364 1.41 23.73 1.42193C23.7237 1.43385 23.7185 1.45406 23.7185 1.46682C23.7185 1.4796 23.7075 1.50021 23.6941 1.51264C23.6806 1.52506 23.6696 1.54568 23.6696 1.55846C23.6696 1.57122 23.6648 1.59142 23.6591 1.60335C23.6533 1.61527 23.6389 1.65593 23.6272 1.69371C23.6154 1.73149 23.5961 1.77363 23.5841 1.78737C23.5633 1.81131 23.5561 1.83036 23.5208 1.95595C23.5121 1.98686 23.4899 2.03743 23.4714 2.06834C23.4528 2.09925 23.4288 2.16106 23.4179 2.2057C23.407 2.25035 23.389 2.30092 23.3778 2.31809C23.3418 2.37344 23.3153 2.43556 23.3071 2.48383C23.3028 2.50974 23.2944 2.53395 23.2885 2.53764C23.2827 2.54132 23.2779 2.55456 23.2779 2.56706C23.2779 2.57955 23.2702 2.59629 23.2608 2.60427C23.2514 2.61225 23.2315 2.65086 23.2168 2.69009C23.1756 2.79916 23.1663 2.82127 23.1475 2.85506C23.1379 2.87223 23.1223 2.90314 23.1129 2.92374C23.1035 2.94435 23.0818 2.99211 23.0646 3.02989C23.0474 3.06767 23.0226 3.11543 23.0096 3.13603C22.9966 3.15664 22.9855 3.18434 22.9851 3.19759C22.9835 3.23868 22.9561 3.30817 22.9158 3.3733C22.8945 3.40764 22.8737 3.45076 22.8695 3.46912C22.8652 3.48748 22.849 3.51838 22.8334 3.5378C22.8012 3.5779 22.7516 3.68222 22.7516 3.70989C22.7516 3.72528 22.7085 3.81465 22.6791 3.86032C22.6747 3.86719 22.6638 3.89528 22.6549 3.92276C22.636 3.98081 22.4873 4.28848 22.4647 4.31612C22.4563 4.32642 22.432 4.37138 22.4106 4.41602C22.3892 4.46066 22.3447 4.54777 22.3115 4.60958C22.2406 4.74181 22.2324 4.75871 22.2125 4.81302C22.2042 4.83562 22.1859 4.86912 22.1717 4.88747C22.1576 4.90581 22.1288 4.95475 22.1078 4.99622C22.0058 5.19769 21.9762 5.25027 21.9386 5.29684C21.9163 5.32455 21.8864 5.37058 21.8721 5.39914C21.8578 5.42768 21.8317 5.47244 21.8142 5.4986C21.7966 5.52475 21.7772 5.55935 21.7711 5.5755C21.7577 5.61049 21.6177 5.84768 21.5893 5.88332C21.5783 5.89706 21.5616 5.92515 21.5521 5.94576C21.5426 5.96636 21.5112 6.01861 21.4823 6.06187C21.4534 6.10513 21.4297 6.14446 21.4296 6.14928C21.4295 6.1541 21.4076 6.18615 21.3808 6.22049C21.354 6.25483 21.332 6.28692 21.332 6.2918C21.3319 6.2967 21.3015 6.34609 21.2645 6.40156C21.2275 6.45703 21.1972 6.50695 21.1972 6.5125C21.1972 6.51803 21.1857 6.5332 21.1716 6.5462C21.1575 6.5592 21.1267 6.60348 21.103 6.64461C21.0794 6.68573 21.0483 6.73419 21.0338 6.75229C21.0043 6.78915 20.9578 6.86329 20.8851 6.98919C20.8582 7.03582 20.7976 7.12281 20.7504 7.1825C20.5794 7.39916 20.5607 7.42405 20.5607 7.43526C20.5607 7.44152 20.5491 7.45735 20.5349 7.47044C20.5207 7.48353 20.4894 7.52514 20.4653 7.56291C20.4177 7.63756 20.3639 7.70435 20.2456 7.83582C20.2035 7.88256 20.1691 7.9252 20.1691 7.93057C20.1691 7.93594 20.0988 8.01636 20.013 8.10928C19.8618 8.27296 19.7064 8.42091 19.5639 8.53695C19.5259 8.56785 19.4726 8.61245 19.4455 8.63605C19.4183 8.65965 19.3752 8.69056 19.3497 8.70473C19.3241 8.71891 19.2819 8.74487 19.2558 8.76241C19.2039 8.79724 19.1255 8.82416 19.076 8.82416C19.0587 8.82416 19.0411 8.82978 19.0369 8.83665C19.0266 8.85367 18.8531 8.85247 18.7991 8.83502C18.6902 8.79981 18.6522 8.77433 18.5325 8.65638C18.4633 8.58809 18.4066 8.52552 18.4066 8.51737C18.4066 8.50921 18.3976 8.49491 18.3865 8.48559C18.3564 8.46004 18.3152 8.38702 18.2992 8.33073C18.2913 8.30315 18.271 8.26132 18.2539 8.23776C18.2369 8.2142 18.223 8.18511 18.223 8.17312C18.223 8.16112 18.2175 8.14783 18.2107 8.14359C18.204 8.13934 18.1985 8.1167 18.1985 8.09327C18.1985 8.06983 18.1855 8.021 18.1697 7.98474C18.1435 7.92489 18.1298 7.87826 18.106 7.76896C18.0959 7.72243 18.0802 7.53229 18.069 7.32222C18.0644 7.2345 18.0558 7.15971 18.05 7.15602C18.0358 7.14708 18.0362 6.19255 18.0504 6.18718C18.0565 6.18486 18.0649 5.90305 18.0693 5.54615C18.0822 4.50467 18.1006 3.52021 18.1137 3.16725C18.1302 2.72388 18.1308 1.76949 18.1148 1.6063C18.0794 1.2465 18.0717 1.20516 18.0176 1.08181C18.007 1.05778 17.9941 1.01844 17.9888 0.994401C17.9836 0.970362 17.9756 0.933836 17.9711 0.913231C17.9666 0.892627 17.9506 0.86172 17.9355 0.844549C17.9205 0.827379 17.8713 0.757136 17.8263 0.688453C17.7434 0.562016 17.6243 0.44171 17.5676 0.427174C17.5519 0.423153 17.5125 0.40306 17.4801 0.382506C17.4188 0.343582 17.301 0.295092 17.2678 0.295092C17.2573 0.295092 17.2207 0.280906 17.1866 0.263561C17.1178 0.228608 16.9829 0.19574 16.9067 0.195403C16.8538 0.195178 16.7212 0.163672 16.6999 0.146252C16.6794 0.129593 16.4715 0.097425 16.3197 0.0874349C16.2659 0.0838884 16.2166 0.0757714 16.2102 0.0694027C16.2038 0.063034 16.1422 0.0578266 16.0732 0.0578266C16.0028 0.0578266 15.9445 0.0523445 15.9403 0.0453389C15.936 0.0381585 15.8716 0.0328513 15.789 0.0328513C15.6941 0.0328513 15.6404 0.0277939 15.6307 0.0179536C15.6134 0.000296029 13.7783 -0.00713407 13.3333 0.00865034Z" fill="white" fill-opacity="1
"/>
</svg>
