<svg width="30" height="30" viewBox="0 0 30 30" fill="none" xmlns="http://www.w3.org/2000/svg">
<path fill-rule="evenodd" clip-rule="evenodd" d="M5.69783 0.022656C5.69783 0.0351093 6.21096 1.58457 6.83813 3.46592L7.97843 6.88653V9.11477V11.343H8.93869H9.89894V8.98687V6.63077L11.0092 3.33821C11.6199 1.52729 12.1195 0.0353794 12.1195 0.0228061C12.1195 0.0102627 11.6832 0 11.1499 0H10.1803L9.58377 2.2656C9.03744 4.34035 8.98199 4.53117 8.92542 4.53093C8.86919 4.53069 8.81157 4.34083 8.2813 2.40787C7.961 1.24035 7.68027 0.220949 7.65747 0.142538L7.61602 0H6.65691C6.12943 0 5.69783 0.0102027 5.69783 0.022656ZM14.3551 2.79263C13.9843 2.8431 13.6721 2.93583 13.3804 3.08212C12.9833 3.28134 12.6591 3.60035 12.4864 3.96174C12.4196 4.10164 12.3479 4.28364 12.3272 4.36616C12.2771 4.56532 12.2509 9.08731 12.2974 9.51705C12.3572 10.0708 12.5482 10.5041 12.8847 10.8497C13.3104 11.2869 13.8383 11.5009 14.5982 11.5443C15.7916 11.6124 16.7407 11.0868 17.0819 10.1688C17.2346 9.75781 17.2359 9.73206 17.2359 7.11189C17.2359 4.89958 17.2309 4.64475 17.1839 4.44118C17.003 3.65722 16.377 3.05412 15.5322 2.84983C15.2414 2.77952 14.6595 2.75122 14.3551 2.79263ZM18.6318 6.65426C18.6323 10.6325 18.6298 10.5642 18.7912 10.8828C18.8946 11.0868 19.0859 11.2743 19.2868 11.3685C19.4403 11.4405 19.4893 11.4479 19.8016 11.4467C20.202 11.4451 20.3721 11.4025 20.7653 11.2058C21.056 11.0603 21.3537 10.8457 21.6095 10.5972L21.7821 10.4297V10.8863V11.343H22.6373H23.4925V7.1569V2.97079H22.6373H21.7821V6.16423V9.35768L21.5945 9.52609C21.4914 9.61872 21.3008 9.74809 21.1709 9.81356C20.7755 10.0131 20.5017 9.97227 20.3756 9.69503C20.3315 9.59817 20.3259 9.26067 20.3182 6.27917L20.3097 2.97079H19.4705H18.6313L18.6318 6.65426ZM15.0626 4.26536C15.2124 4.31025 15.3874 4.45669 15.4391 4.5805C15.473 4.66168 15.4803 5.11726 15.4798 7.13343C15.479 9.88357 15.4918 9.72102 15.2606 9.92402C15.1144 10.0524 14.967 10.0916 14.6801 10.0786C14.372 10.0645 14.2212 9.97537 14.1131 9.74316L14.0406 9.58754L14.0403 7.13343C14.0401 5.10003 14.0472 4.66213 14.082 4.579C14.1296 4.46491 14.2927 4.32361 14.4373 4.27118C14.5646 4.225 14.917 4.22173 15.0626 4.26536ZM4.99264 14.0036C2.63128 14.2068 0.631313 15.966 0.119947 18.2899C-0.00143519 18.8415 -0.00812696 19.0475 0.0045364 21.8458C0.0177099 24.7675 0.0109881 24.6441 0.194907 25.3267C0.688808 27.1596 2.19896 28.6684 4.02464 29.1532C4.74618 29.3447 3.78305 29.3282 14.8352 29.339C25.82 29.3498 25.1619 29.3592 25.8714 29.1814C27.6641 28.7324 29.1531 27.3345 29.7311 25.5579C29.988 24.7681 29.9828 24.8388 29.9961 21.9358C30.0083 19.259 29.9976 18.9228 29.8817 18.3504C29.4688 16.3108 27.8856 14.6666 25.8332 14.1458C25.2248 13.9914 25.9812 14.0019 15.1503 13.9975C9.62962 13.9952 5.05866 13.998 4.99264 14.0036ZM9.47883 16.6544V17.4046H8.59359H7.70836V21.8008V26.1969H6.85313H5.99791V21.8008V17.4046H5.11267H4.22744V16.6544V15.9042H6.85313H9.47883V16.6544ZM17.1609 17.559V19.2138L17.3188 19.0644C17.8817 18.5321 18.5959 18.382 19.1977 18.6696C19.4239 18.7777 19.6863 19.068 19.796 19.3314C19.9779 19.7684 19.9816 19.8315 19.9816 22.5073C19.9816 25.2031 19.9804 25.2229 19.7867 25.6165C19.6558 25.8824 19.4251 26.1039 19.1788 26.1999C18.9655 26.2832 18.4113 26.3141 18.1526 26.2572C17.9147 26.2049 17.5575 26.0107 17.3442 25.8177L17.1609 25.6518V25.9244V26.1969H16.3957H15.6305V21.0506V15.9042H16.3957H17.1609V17.559ZM23.7626 18.4997C24.3075 18.626 24.7847 18.9901 25.0027 19.4459C25.2237 19.908 25.2398 20.0325 25.2551 21.3882L25.2687 22.596H23.8083H22.3478L22.3594 23.5637C22.369 24.3703 22.3795 24.5572 22.4218 24.6857C22.49 24.8928 22.6571 25.0447 22.8482 25.0733C23.1439 25.1177 23.4419 25.0419 23.5358 24.8985C23.6155 24.7765 23.6712 24.4831 23.6916 24.0772L23.7117 23.6763H24.492H25.2723L25.2525 24.1137C25.2206 24.8141 25.1158 25.2088 24.8591 25.595C24.6184 25.9571 24.2124 26.2229 23.7326 26.3326C23.4307 26.4016 22.8421 26.424 22.528 26.3785C21.7014 26.2587 21.1034 25.7039 20.8741 24.8439C20.8073 24.5934 20.8068 24.5754 20.8068 22.4009C20.8068 19.9513 20.7977 20.068 21.0261 19.5952C21.1106 19.4203 21.1952 19.3097 21.4059 19.0989C21.7689 18.7356 22.1303 18.5479 22.6473 18.4537C22.8633 18.4144 23.5093 18.441 23.7626 18.4997ZM11.6694 21.6217C11.6694 24.1338 11.6764 24.6552 11.7112 24.7386C11.8469 25.0633 12.3077 24.9886 12.7673 24.5675L12.9598 24.3912V21.498V18.6049H13.725H14.4902V22.4009V26.1969H13.725H12.9598V25.788V25.3791L12.7422 25.5857C12.2096 26.0915 11.653 26.339 11.1143 26.3097C10.6358 26.2836 10.3573 26.0489 10.207 25.5452C10.1596 25.3863 10.1545 25.0876 10.1462 21.9883L10.1371 18.6049H10.9032H11.6694V21.6217ZM17.686 19.7453C17.5254 19.7735 17.4404 19.8114 17.2884 19.9225L17.1609 20.0157V22.398V24.7804L17.2667 24.8733C17.4426 25.0278 17.6055 25.095 17.836 25.1083C18.103 25.1237 18.2253 25.0664 18.331 24.8766L18.4062 24.7416V22.491C18.4062 20.6734 18.3984 20.2182 18.3655 20.1253C18.2648 19.8404 17.9971 19.6907 17.686 19.7453ZM22.7766 19.7882C22.6112 19.8421 22.511 19.9341 22.4311 20.1053C22.3753 20.2251 22.3669 20.3075 22.3575 20.8336L22.3468 21.4269L23.0172 21.4188L23.6876 21.4107L23.6963 21.0506C23.7138 20.3242 23.6219 19.9754 23.3771 19.8398C23.2188 19.7521 22.9567 19.7296 22.7766 19.7882Z" fill="white" fill-opacity="1"/>
</svg>
