<?xml version="1.0" standalone="no"?>
<!DOCTYPE svg PUBLIC "-//W3C//DTD SVG 20010904//EN"
 "http://www.w3.org/TR/2001/REC-SVG-20010904/DTD/svg10.dtd">
<svg version="1.0" xmlns="http://www.w3.org/2000/svg"
 width="700.000000pt" height="700.000000pt" viewBox="0 0 700.000000 700.000000"
 preserveAspectRatio="xMidYMid meet">
<metadata>
Created by potrace 1.14, written by Peter Selinger 2001-2017
</metadata>
<g transform="translate(0.000000,700.000000) scale(0.100000,-0.100000)"
fill="#000000" stroke="none">
<path d="M3310 5974 c-348 -40 -593 -105 -845 -222 -772 -360 -1292 -1058
-1421 -1907 -26 -168 -26 -522 0 -690 56 -370 197 -737 397 -1035 79 -118 184
-250 198 -250 6 0 652 562 724 630 5 4 -13 37 -41 71 -313 400 -404 928 -243
1408 211 630 824 1050 1485 1017 384 -19 723 -166 992 -431 l73 -73 363 320
c200 175 364 322 366 327 4 12 -234 239 -328 312 -343 267 -742 437 -1180 504
-100 15 -462 28 -540 19z"/>
<path d="M4915 4534 c-308 -272 -568 -503 -578 -513 -18 -18 -13 -25 164 -227
100 -115 189 -217 197 -226 13 -15 10 -20 -24 -50 -20 -18 -41 -33 -45 -33 -4
0 -96 100 -203 222 l-195 223 -371 -327 c-203 -180 -370 -329 -370 -332 0 -3
87 -105 194 -226 214 -243 205 -226 134 -276 l-27 -19 -192 220 c-106 121
-196 220 -199 220 -9 0 -734 -637 -738 -648 -1 -4 83 -105 188 -225 104 -119
190 -220 190 -225 0 -5 -18 -23 -40 -40 l-39 -32 -191 217 c-105 120 -194 219
-198 221 -4 1 -152 -125 -328 -280 -176 -156 -341 -302 -367 -325 l-48 -41
195 -222 194 -222 -38 -34 c-20 -19 -41 -34 -46 -34 -5 1 -92 97 -194 215
-102 118 -190 213 -197 212 -10 -2 -498 -428 -1012 -884 l-36 -32 741 -1 741
0 124 108 c68 59 311 270 539 468 228 198 726 629 1105 959 l690 598 3 -1066
2 -1067 425 0 425 0 0 2110 c0 1161 -3 2110 -7 2109 -5 0 -260 -223 -568 -495z"/>
</g>
</svg>
